<?xml version="1.0" standalone="no"?>
<!DOCTYPE svg PUBLIC "-//W3C//DTD SVG 20010904//EN"
 "http://www.w3.org/TR/2001/REC-SVG-20010904/DTD/svg10.dtd">
<svg version="1.0" xmlns="http://www.w3.org/2000/svg"
 width="1024.000000pt" height="1024.000000pt" viewBox="0 0 1024.000000 1024.000000"
 preserveAspectRatio="xMidYMid meet">

<g transform="translate(0.000000,1024.000000) scale(0.100000,-0.100000)"
fill="#000000" stroke="none">
<path d="M4260 7264 c-79 -21 -206 -86 -272 -139 -110 -87 -195 -219 -244
-380 -25 -83 -28 -104 -28 -255 0 -147 3 -176 27 -265 73 -273 226 -478 552
-739 171 -137 265 -202 306 -211 119 -26 236 77 215 189 -10 51 -47 90 -230
240 -325 266 -457 431 -512 636 -34 128 -15 305 44 413 37 69 129 151 199 177
87 32 215 26 298 -15 96 -48 173 -132 233 -255 62 -125 90 -150 171 -150 93 0
128 30 186 164 50 114 120 192 213 238 61 30 75 33 162 33 83 0 102 -3 150
-27 164 -80 253 -232 254 -433 1 -199 -82 -368 -281 -572 -102 -104 -182 -174
-553 -478 -41 -33 -108 -89 -151 -125 -42 -36 -111 -94 -153 -129 -42 -35 -76
-67 -74 -70 3 -8 133 -122 207 -183 l44 -36 104 84 c57 46 151 123 211 171
462 374 671 565 775 710 73 103 138 233 173 348 26 84 28 102 28 275 1 211 -8
259 -75 396 -93 191 -265 333 -465 384 -108 28 -273 27 -374 -1 -139 -38 -292
-137 -353 -228 l-16 -25 -63 60 c-35 33 -85 75 -112 94 -60 41 -183 93 -254
109 -75 16 -275 13 -342 -5z m338 -9 c133 -28 267 -103 371 -209 l54 -55 76
78 c89 90 187 145 321 181 116 31 275 24 398 -16 45 -14 82 -30 82 -35 0 -5 5
-9 12 -9 20 0 111 -63 167 -115 141 -132 216 -310 226 -535 l5 -105 -15 64
c-8 36 -34 103 -56 150 -34 71 -57 101 -128 171 -94 93 -163 135 -279 170 -63
19 -89 22 -175 17 -105 -5 -194 -29 -204 -53 -3 -8 -9 -12 -13 -9 -11 7 -92
-50 -142 -99 -27 -28 -65 -88 -103 -163 -72 -142 -100 -167 -181 -161 -74 6
-98 29 -155 146 -40 81 -64 118 -114 168 -113 113 -254 157 -378 120 -26 -8
-47 -12 -47 -10 0 2 -22 -7 -48 -20 -144 -73 -241 -272 -228 -466 17 -257 144
-444 506 -743 74 -61 141 -117 148 -124 8 -7 29 -25 47 -39 75 -57 80 -160 9
-226 -69 -63 -155 -55 -265 26 -238 172 -360 279 -495 432 -165 187 -260 422
-269 666 -7 190 21 307 121 498 10 19 54 71 98 115 173 172 410 241 654 190z
m1134 -1352 c-10 -16 -30 -53 -44 -83 -44 -98 -197 -360 -266 -454 -36 -50
-93 -131 -126 -181 -34 -49 -79 -107 -101 -130 -41 -40 -140 -125 -162 -138
-11 -7 -90 53 -181 138 -24 22 -50 44 -58 48 -10 6 7 25 67 75 45 37 127 105
184 152 56 47 119 99 141 117 185 151 401 335 492 421 37 34 68 62 70 62 2 0
-5 -12 -16 -27z"/>
<path d="M2548 3990 c-27 -15 -40 -30 -48 -58 -8 -26 -10 -191 -8 -542 4 -488
4 -507 25 -570 53 -157 154 -262 314 -326 86 -35 262 -45 359 -20 197 50 344
193 395 386 20 75 19 242 -1 311 -65 220 -241 360 -469 376 -135 9 -282 -40
-357 -120 l-28 -29 0 256 c0 284 -5 313 -59 340 -40 21 -78 19 -123 -4z m123
-10 c42 -23 46 -52 47 -318 1 -139 4 -258 8 -263 3 -5 23 6 44 25 41 37 120
81 161 90 87 20 119 23 183 19 276 -17 476 -233 476 -514 0 -107 -14 -173 -56
-255 -57 -114 -162 -212 -268 -251 -175 -63 -332 -56 -494 24 -125 61 -226
194 -252 332 -16 83 -13 1063 3 1083 28 36 105 51 148 28z"/>
<path d="M2965 3351 c-173 -45 -284 -238 -245 -427 18 -85 52 -145 112 -198
63 -55 120 -76 209 -76 265 0 416 276 294 535 -25 51 -94 116 -153 143 -59 27
-162 38 -217 23z m158 -16 c153 -40 236 -157 237 -337 0 -113 -23 -177 -87
-241 -66 -66 -122 -91 -213 -95 -172 -8 -295 95 -330 278 -26 135 45 301 155
366 73 42 151 52 238 29z"/>
<path d="M3894 3990 c-42 -13 -91 -70 -100 -116 -23 -121 103 -211 218 -155
132 63 99 258 -47 275 -22 3 -54 1 -71 -4z m121 -26 c80 -38 86 -178 11 -228
-38 -24 -131 -24 -165 1 -64 47 -74 134 -23 195 49 58 103 68 177 32z"/>
<path d="M3903 3539 c-17 -5 -41 -22 -52 -38 -20 -28 -21 -41 -21 -495 l0
-466 29 -32 c25 -28 34 -32 83 -32 30 -1 67 5 81 13 55 29 57 52 56 519 0 304
-4 437 -12 461 -22 62 -93 92 -164 70z m126 -38 c36 -33 32 29 35 -531 2 -378
-1 -420 -34 -455 -20 -21 -33 -25 -81 -25 -52 0 -60 3 -83 31 l-27 31 3 465 3
465 30 24 c45 36 113 34 154 -5z"/>
<path d="M5735 3531 c-89 -25 -163 -69 -230 -136 -104 -104 -155 -231 -155
-387 0 -102 14 -167 58 -258 85 -180 278 -290 508 -290 119 0 211 21 297 68
81 43 117 86 117 139 0 45 -14 69 -50 88 -41 21 -72 19 -115 -11 -90 -61 -133
-76 -223 -81 -109 -6 -177 17 -252 84 -82 74 -116 167 -108 297 7 98 37 164
105 226 83 76 200 100 316 65 47 -14 122 -60 146 -89 21 -25 74 -30 116 -10
44 21 70 70 60 116 -15 65 -145 152 -276 183 -86 20 -238 18 -314 -4z m297 -5
c24 -8 56 -17 72 -21 43 -9 161 -81 185 -111 23 -29 28 -83 11 -114 -28 -52
-104 -55 -165 -7 -60 49 -87 64 -135 77 -54 15 -158 14 -208 -1 -52 -15 -126
-70 -162 -121 -76 -104 -85 -284 -21 -405 39 -73 135 -148 215 -167 49 -12
158 -8 209 8 26 8 79 33 118 56 68 42 70 42 107 28 70 -26 81 -112 20 -163
-55 -46 -142 -83 -234 -99 -120 -21 -195 -20 -284 5 -242 67 -379 234 -396
483 -21 318 211 563 538 565 49 1 106 -5 130 -13z"/>
<path d="M6895 3538 c-82 -15 -193 -76 -261 -143 -108 -107 -161 -258 -150
-427 16 -237 141 -406 354 -480 91 -31 306 -33 392 -4 82 28 144 61 184 99 31
29 36 41 36 78 0 54 -19 84 -64 99 -38 12 -80 0 -137 -41 -17 -12 -52 -30 -77
-40 -29 -11 -39 -18 -26 -19 23 0 102 39 142 71 36 28 97 25 127 -6 62 -61 10
-144 -130 -206 -99 -45 -254 -59 -372 -35 -308 63 -474 339 -401 671 45 207
238 363 468 379 101 6 171 -9 278 -61 149 -73 252 -245 252 -421 0 -58 -3 -67
-27 -89 l-28 -25 -367 1 -368 1 -6 -24 c-7 -30 30 -115 70 -163 15 -18 53 -47
84 -65 53 -30 64 -33 157 -34 l100 -2 -90 7 c-146 11 -229 61 -285 173 -16 34
-30 67 -30 74 0 11 75 14 376 16 l376 3 24 28 c21 25 24 38 24 110 0 98 -30
193 -86 275 -113 163 -323 241 -539 200z"/>
<path d="M4335 3516 c-49 -49 -43 -115 15 -154 33 -22 39 -23 287 -22 139 1
253 5 253 10 0 5 -98 7 -217 4 -120 -2 -240 -2 -267 2 -59 8 -86 32 -86 78 0
96 0 96 440 96 406 0 408 0 428 -59 13 -37 -1 -66 -70 -148 -108 -129 -223
-271 -303 -373 -44 -57 -85 -108 -90 -114 -6 -6 -26 -31 -45 -56 -19 -25 -37
-47 -41 -50 -17 -14 -29 -49 -18 -56 6 -3 130 -7 275 -8 289 -3 286 -2 303
-62 10 -37 -8 -87 -38 -103 -13 -7 -149 -11 -406 -11 l-386 0 -24 25 c-50 49
-39 72 119 271 345 434 417 526 413 530 -4 4 -184 -219 -458 -566 -105 -133
-109 -140 -109 -183 0 -50 33 -83 91 -92 24 -3 202 -5 396 -3 339 3 353 4 380
24 54 40 53 136 -1 167 -14 8 -105 14 -287 17 l-267 5 192 241 c106 133 233
291 282 350 50 60 96 120 103 133 17 30 6 83 -20 107 -20 18 -45 19 -420 22
l-399 3 -25 -25z"/>
<path d="M6873 3331 c-70 -36 -133 -109 -153 -178 -23 -76 -35 -73 277 -73
162 0 284 4 293 10 10 6 -85 10 -279 10 l-293 0 7 28 c23 94 100 178 189 206
73 23 173 18 232 -12 63 -32 144 -131 144 -176 0 -8 4 -17 10 -21 12 -7 -14
81 -31 103 -73 97 -125 124 -244 130 -85 3 -94 2 -152 -27z"/>
</g>
</svg>
